<svg width="618" height="361" viewBox="0 0 618 361" fill="none" xmlns="http://www.w3.org/2000/svg">
<mask id="path-1-inside-1_11_157" fill="white">
<path d="M618 352.5C618 356.918 614.418 360.5 610 360.5H508V250.5H618V352.5Z"/>
</mask>
<path d="M621 352.5C621 358.575 616.075 363.5 610 363.5H508V357.5H610C612.761 357.5 615 355.261 615 352.5H621ZM508 250.5H618H508ZM621 250.5V352.5C621 358.575 616.075 363.5 610 363.5V357.5C612.761 357.5 615 355.261 615 352.5V250.5H621ZM508 360.5V250.5V360.5Z" fill="#00D272" mask="url(#path-1-inside-1_11_157)"/>
<mask id="path-3-inside-2_11_157" fill="white">
<path d="M618 8.5C618 4.08172 614.418 0.5 610 0.5H508V110.5H618V8.5Z"/>
</mask>
<path d="M621 8.5C621 2.42487 616.075 -2.5 610 -2.5H508V3.5H610C612.761 3.5 615 5.73858 615 8.5H621ZM508 110.5H618H508ZM621 110.5V8.5C621 2.42487 616.075 -2.5 610 -2.5V3.5C612.761 3.5 615 5.73858 615 8.5V110.5H621ZM508 0.5V110.5V0.5Z" fill="#00D272" mask="url(#path-3-inside-2_11_157)"/>
<mask id="path-5-inside-3_11_157" fill="white">
<path d="M0 8.5C0 4.08172 3.58172 0.5 8 0.5H110V110.5H0V8.5Z"/>
</mask>
<path d="M-3 8.5C-3 2.42487 1.92487 -2.5 8 -2.5H110V3.5H8C5.23858 3.5 3 5.73858 3 8.5H-3ZM110 110.5H0H110ZM-3 110.5V8.5C-3 2.42487 1.92487 -2.5 8 -2.5V3.5C5.23858 3.5 3 5.73858 3 8.5V110.5H-3ZM110 0.5V110.5V0.5Z" fill="#00D272" mask="url(#path-5-inside-3_11_157)"/>
<mask id="path-7-inside-4_11_157" fill="white">
<path d="M0 352.5C0 356.918 3.58172 360.5 8 360.5H110V250.5H0V352.5Z"/>
</mask>
<path d="M-3 352.5C-3 358.575 1.92487 363.5 8 363.5H110V357.5H8C5.23858 357.5 3 355.261 3 352.5H-3ZM110 250.5H0H110ZM-3 250.5V352.5C-3 358.575 1.92487 363.5 8 363.5V357.5C5.23858 357.5 3 355.261 3 352.5V250.5H-3ZM110 360.5V250.5V360.5Z" fill="#00D272" mask="url(#path-7-inside-4_11_157)"/>
</svg>
