<svg width="13" height="12" viewBox="0 0 13 12" fill="none" xmlns="http://www.w3.org/2000/svg">
<path id="Vector" fill-rule="evenodd" clip-rule="evenodd" d="M3.43586 0C3.55826 0 3.67566 0.0486262 3.76221 0.135181C3.84877 0.221737 3.8974 0.339131 3.8974 0.461538V1.38462H9.43586V0.461538C9.43586 0.339131 9.48448 0.221737 9.57104 0.135181C9.65759 0.0486262 9.77499 0 9.8974 0C10.0198 0 10.1372 0.0486262 10.2238 0.135181C10.3103 0.221737 10.3589 0.339131 10.3589 0.461538V1.38462H10.8205C11.3101 1.38462 11.7797 1.57912 12.1259 1.92534C12.4721 2.27156 12.6666 2.74114 12.6666 3.23077V10.1538C12.6666 10.6435 12.4721 11.1131 12.1259 11.4593C11.7797 11.8055 11.3101 12 10.8205 12H2.51278C2.02315 12 1.55357 11.8055 1.20735 11.4593C0.861131 11.1131 0.666626 10.6435 0.666626 10.1538V3.23077C0.666626 2.74114 0.861131 2.27156 1.20735 1.92534C1.55357 1.57912 2.02315 1.38462 2.51278 1.38462H2.97432V0.461538C2.97432 0.339131 3.02294 0.221737 3.1095 0.135181C3.19606 0.0486262 3.31345 0 3.43586 0ZM11.7435 5.53846C11.7435 5.29365 11.6463 5.05886 11.4732 4.88575C11.3001 4.71264 11.0653 4.61538 10.8205 4.61538H2.51278C2.26796 4.61538 2.03318 4.71264 1.86007 4.88575C1.68696 5.05886 1.5897 5.29365 1.5897 5.53846V10.1538C1.5897 10.3987 1.68696 10.6334 1.86007 10.8066C2.03318 10.9797 2.26796 11.0769 2.51278 11.0769H10.8205C11.0653 11.0769 11.3001 10.9797 11.4732 10.8066C11.6463 10.6334 11.7435 10.3987 11.7435 10.1538V5.53846Z" fill="#5F5F5F"/>
</svg>
