<?xml version="1.0" encoding="UTF-8"?>
<svg id="Camada_1" data-name="Camada 1" xmlns="http://www.w3.org/2000/svg" viewBox="0 0 1080 1080">
  <defs>
    <style>
      .cls-1 {
        fill: #fff;
      }

      .cls-1, .cls-2, .cls-3 {
        stroke-width: 0px;
      }

      .cls-2 {
        fill: #00d077;
      }

      .cls-3 {
        fill: #003c71;
      }
    </style>
  </defs>
  <rect class="cls-3" x="0" width="1080" height="1080"/>
  <g>
    <path class="cls-1" d="m538.86,492.56h-42.93v-39.97h-20.05v144.31h20.05v-84.29h42.93c6.53,0,11.84,5.31,11.84,11.84v52.28c0,6.68,0,13.37,0,20.05h20.05v-72.33c0-17.58-14.31-31.89-31.89-31.89Z"/>
    <g>
      <polygon class="cls-1" points="935.62 602.92 935.62 443.44 935.59 443.44 935.59 443.35 903.15 443.35 903.15 463.4 915.56 463.4 915.56 602.92 903.12 602.92 903.12 622.97 935.62 622.97 935.62 602.92 935.62 602.92"/>
      <polygon class="cls-1" points="428.92 463.4 428.92 622.89 428.95 622.89 428.95 622.97 461.39 622.97 461.39 602.92 448.98 602.92 448.98 463.4 461.42 463.4 461.42 443.35 428.92 443.35 428.92 463.4 428.92 463.4"/>
    </g>
    <path class="cls-1" d="m260.79,492.51h-32.51c-5.37,0-10.45,1.24-15.01,3.41v-3.47h-20.05v104.46h20.05v-69.34c0-8.28,6.73-15.01,15.01-15.01h32.51c4,0,7.25,3.25,7.25,7.25v56.86c0,6.7,0,13.41,0,20.11,6.68-.02,13.36-.04,20.04-.06v-76.91c0-15.06-12.25-27.3-27.31-27.3Z"/>
    <path class="cls-1" d="m892.84,519.84c0-15.04-12.24-27.27-27.27-27.27h-40.32c-15.04,0-27.27,12.24-27.27,27.27v49.67c0,15.04,12.24,27.27,27.27,27.27h40.32c5.39,0,10.78,0,16.17,0,3.7-6.64,7.39-13.29,11.09-19.93-9.09-.04-18.17-.08-27.26-.12h-40.32c-3.98,0-7.22-3.24-7.22-7.22v-15.08h74.82v-.69h0v-33.9Zm-74.82,0c0-3.98,3.24-7.22,7.22-7.22h40.32c3.98,0,7.22,3.24,7.22,7.22v14.54h-54.77v-14.54Z"/>
    <path class="cls-1" d="m658.01,559.63h0v2.17c0,8.14-6.62,14.77-14.77,14.77h-32.78c-3.98,0-7.22-3.24-7.22-7.22v-76.87h-20.05v76.87c0,15.04,12.24,27.27,27.27,27.27h32.78c5.28,0,10.28-1.19,14.77-3.3v3.49h20.05v-104.34h-20.05v67.16Z"/>
    <path class="cls-1" d="m375.54,452.53h-.14v40.92c-2.3-.63-4.72-1-7.22-1h-40.32c-15.04,0-27.27,12.24-27.27,27.27v49.67c0,15.04,12.24,27.27,27.27,27.27h40.32c15.04,0,27.27-12.24,27.27-27.27v-96.83h12.58v-20.05h-32.49v.03Zm-.14,116.86c0,3.98-3.24,7.22-7.22,7.22h-40.32c-3.98,0-7.22-3.24-7.22-7.22v-49.67c0-3.98,3.24-7.22,7.22-7.22h40.32c3.98,0,7.22,3.24,7.22,7.22v49.67Z"/>
    <path class="cls-1" d="m765.39,495.09c-3.93-1.67-8.25-2.59-12.78-2.59h-34.76c-15.04,0-27.27,12.24-27.27,27.27v49.67c0,15.04,12.24,27.27,27.27,27.27h40.32c2.5,0,4.92-.37,7.22-1v13.66c0,3.98-3.24,7.22-7.22,7.22h-40.32c-3.98,0-7.22-3.24-7.22-7.22v-6.95h-20.05v6.95c0,15.04,12.24,27.27,27.27,27.27h40.32c15.04,0,27.27-12.24,27.27-27.27v-12.48h0v-104.46h-20.05v2.65Zm-7.22,81.58h-40.32c-3.98,0-7.22-3.24-7.22-7.22v-49.67c0-3.98,3.24-7.22,7.22-7.22h34.76c7.05,0,12.78,5.73,12.78,12.78v44.11c0,3.98-3.24,7.22-7.22,7.22Z"/>
    <polygon class="cls-1" points="144.4 512.5 151.81 512.5 151.81 576.79 144.38 576.79 144.38 596.84 151.81 596.84 171.83 596.84 179.26 596.84 179.26 576.79 171.83 576.79 171.83 512.5 179.27 512.5 179.27 492.45 144.4 492.45 144.4 512.5"/>
    <polyline class="cls-2" points="570.75 535.97 527.34 535.97 527.34 492.56"/>
  </g>
</svg>