<svg width="12" height="13" viewBox="0 0 12 13" fill="none" xmlns="http://www.w3.org/2000/svg">
<path id="Vector" fill-rule="evenodd" clip-rule="evenodd" d="M6 12.4041C7.5913 12.4041 9.11742 11.7719 10.2426 10.6467C11.3679 9.52148 12 7.99535 12 6.40405C12 4.81275 11.3679 3.28663 10.2426 2.16141C9.11742 1.03619 7.5913 0.404053 6 0.404053C4.4087 0.404053 2.88258 1.03619 1.75736 2.16141C0.632141 3.28663 0 4.81275 0 6.40405C0 7.99535 0.632141 9.52148 1.75736 10.6467C2.88258 11.7719 4.4087 12.4041 6 12.4041ZM6.5625 2.65405C6.5625 2.50487 6.50324 2.36179 6.39775 2.25631C6.29226 2.15082 6.14918 2.09155 6 2.09155C5.85082 2.09155 5.70774 2.15082 5.60225 2.25631C5.49676 2.36179 5.4375 2.50487 5.4375 2.65405V6.40405C5.4375 6.71455 5.6895 6.96655 6 6.96655H9C9.14918 6.96655 9.29226 6.90729 9.39775 6.8018C9.50324 6.69631 9.5625 6.55324 9.5625 6.40405C9.5625 6.25487 9.50324 6.11179 9.39775 6.00631C9.29226 5.90082 9.14918 5.84155 9 5.84155H6.5625V2.65405Z" fill="#5F5F5F"/>
</svg>
