<svg width="12" height="13" viewBox="0 0 12 13" fill="none" xmlns="http://www.w3.org/2000/svg">
<g id="Frame" clip-path="url(#clip0_168_177)">
<path id="Vector" fill-rule="evenodd" clip-rule="evenodd" d="M5.77 12.1504L5.805 12.1704L5.819 12.1784C5.87452 12.2084 5.93664 12.2241 5.99975 12.2241C6.06286 12.2241 6.12498 12.2084 6.1805 12.1784L6.1945 12.1709L6.23 12.1504C6.42556 12.0344 6.61638 11.9106 6.802 11.7794C7.28254 11.4401 7.73152 11.0582 8.1435 10.6384C9.1155 9.64335 10.125 8.14835 10.125 6.22485C10.125 5.13084 9.6904 4.08163 8.91682 3.30804C8.14323 2.53445 7.09402 2.09985 6 2.09985C4.90598 2.09985 3.85677 2.53445 3.08318 3.30804C2.3096 4.08163 1.875 5.13084 1.875 6.22485C1.875 8.14785 2.885 9.64335 3.8565 10.6384C4.26832 11.0582 4.71714 11.4401 5.1975 11.7794C5.38328 11.9106 5.57427 12.0344 5.77 12.1504ZM6 7.72485C6.39782 7.72485 6.77936 7.56682 7.06066 7.28551C7.34196 7.00421 7.5 6.62268 7.5 6.22485C7.5 5.82703 7.34196 5.4455 7.06066 5.16419C6.77936 4.88289 6.39782 4.72485 6 4.72485C5.60218 4.72485 5.22064 4.88289 4.93934 5.16419C4.65804 5.4455 4.5 5.82703 4.5 6.22485C4.5 6.62268 4.65804 7.00421 4.93934 7.28551C5.22064 7.56682 5.60218 7.72485 6 7.72485Z" fill="white"/>
</g>
<defs>
<clipPath id="clip0_168_177">
<rect width="12" height="12" fill="white" transform="translate(0 0.974854)"/>
</clipPath>
</defs>
</svg>
