<svg width="16" height="16" viewBox="0 0 16 16" fill="none" xmlns="http://www.w3.org/2000/svg">
<g id="Frame">
<path id="Vector" fill-rule="evenodd" clip-rule="evenodd" d="M4.99999 4C4.99999 3.20435 5.31606 2.44129 5.87867 1.87868C6.44128 1.31607 7.20434 1 7.99999 1C8.79564 1 9.5587 1.31607 10.1213 1.87868C10.6839 2.44129 11 3.20435 11 4C11 4.79565 10.6839 5.55871 10.1213 6.12132C9.5587 6.68393 8.79564 7 7.99999 7C7.20434 7 6.44128 6.68393 5.87867 6.12132C5.31606 5.55871 4.99999 4.79565 4.99999 4ZM2.50066 13.4033C2.52314 11.9596 3.11242 10.5827 4.1413 9.56972C5.17018 8.55674 6.55613 7.98897 7.99999 7.98897C9.44385 7.98897 10.8298 8.55674 11.8587 9.56972C12.8876 10.5827 13.4768 11.9596 13.4993 13.4033C13.5011 13.5005 13.4744 13.5961 13.4227 13.6784C13.3709 13.7607 13.2963 13.8261 13.208 13.8667C11.5741 14.6158 9.79743 15.0024 7.99999 15C6.14266 15 4.37799 14.5947 2.79199 13.8667C2.70365 13.8261 2.62904 13.7607 2.5773 13.6784C2.52556 13.5961 2.49893 13.5005 2.50066 13.4033Z" fill="#002748"/>
</g>
</svg>
