<svg width="12" height="12" viewBox="0 0 12 12" fill="none" xmlns="http://www.w3.org/2000/svg">
<path id="Vector" fill-rule="evenodd" clip-rule="evenodd" d="M1.80998 1.29853e-08C1.32994 1.29853e-08 0.869566 0.190693 0.53013 0.53013C0.190693 0.869566 0 1.32994 0 1.80998V4.41514C0.000102512 4.89513 0.190863 5.35543 0.530323 5.69479L6.31018 11.4753C6.86524 12.0303 7.75213 12.1908 8.45078 11.7335C9.75903 10.8768 10.8765 9.75948 11.7335 8.45138C12.1908 7.75152 12.0303 6.86524 11.4753 6.31078L5.69539 0.530323C5.52729 0.362167 5.3277 0.228782 5.10803 0.137787C4.88835 0.0467922 4.65291 -2.84673e-05 4.41514 1.29853e-08H1.80998ZM2.48872 3.16746C2.66873 3.16746 2.84137 3.09595 2.96866 2.96866C3.09595 2.84137 3.16746 2.66873 3.16746 2.48872C3.16746 2.3087 3.09595 2.13606 2.96866 2.00877C2.84137 1.88149 2.66873 1.80998 2.48872 1.80998C2.3087 1.80998 2.13606 1.88149 2.00877 2.00877C1.88149 2.13606 1.80998 2.3087 1.80998 2.48872C1.80998 2.66873 1.88149 2.84137 2.00877 2.96866C2.13606 3.09595 2.3087 3.16746 2.48872 3.16746Z" fill="#5F5F5F"/>
</svg>
